# xmcd
#
# Track frame offsets: 
#        150
#        34501
#        77926
#        106541
#        131623
#        148972
#        167122
#        191558
#        229326
#        252532
#        280242
#        307931
#
# Disc length: 4427 seconds
#
# Revision: 1
# Processed by: cddbd v1.5.2PL0 Copyright (c) Steve Scherf et al.
# Submitted via: ExactAudioCopy v0.95b3
#
DISCID=a611490c
DTITLE=Various Artist - Pop and Wave Presents 3from1 Italo Disco [88765
DTITLE=41483 2]
DYEAR=2012
DGENRE=Italo Disco
TTITLE0=Gazebo - I Like Chopin (Extendend Dance Version)
TTITLE1=Gazebo - Masterpiece (Original 12 Inch Version)
TTITLE2=Gazebo - Lunatic (Original 12 Inch Version)
TTITLE3=Fancy - Slice Me Nice (Slice Remix)
TTITLE4=Fancy - Chinese Eyes (LP Version)
TTITLE5=Fancy - Bolero (LP Version)
TTITLE6=Den Harrow - Future Brain (Extended Version)
TTITLE7=Den Harrow - Dont Break My Heart (Extended Version)
TTITLE8=Den Harrow - Energy Rain (12 Inch Maxi)
TTITLE9=My Mine - Zorro (Original 12'' Version)
TTITLE10=My Mine - Hypnotic Tango (Original 12'' Version)
TTITLE11=My Mine - Hypnotic Tango (Instrumental Version)
EXTD=
EXTT0=
EXTT1=
EXTT2=
EXTT3=
EXTT4=
EXTT5=
EXTT6=
EXTT7=
EXTT8=
EXTT9=
EXTT10=
EXTT11=
PLAYORDER=
